<?xml version="1.0" encoding="utf-8"?>
<!-- Generator: Adobe Illustrator 21.0.0, SVG Export Plug-In . SVG Version: 6.00 Build 0)  -->
<svg version="1.1" id="Layer_1" xmlns="http://www.w3.org/2000/svg" xmlns:xlink="http://www.w3.org/1999/xlink" x="0px" y="0px"
	 viewBox="0 0 141 10" style="enable-background:new 0 0 141 10;" xml:space="preserve">
<style type="text/css">
	.st0{fill:#00558B;stroke:#0071BC;stroke-miterlimit:10;}
</style>
<g>
	<path class="st0" d="M10.691,6.109c0,0.758-0.322,1.344-0.967,1.758C9.095,8.27,8.232,8.471,7.134,8.471
		c-0.305,0-0.902-0.012-1.793-0.035c0.055-1.211,0.082-2.546,0.082-4.007c0-1.375-0.027-2.582-0.082-3.621h0.703
		c0.137,0,0.412-0.006,0.826-0.018s0.715-0.018,0.902-0.018c1.625,0,2.438,0.561,2.438,1.682c0,0.875-0.385,1.457-1.154,1.746v0.059
		C10.146,4.454,10.691,5.071,10.691,6.109z M9.226,2.747c0-0.809-0.545-1.213-1.635-1.213c-0.547,0-0.99,0.029-1.33,0.088
		c0.031,0.281,0.047,1.076,0.047,2.385C6.5,4.014,6.71,4.018,6.941,4.018c0.773,0,1.336-0.088,1.688-0.264
		C9.027,3.559,9.226,3.223,9.226,2.747z M9.701,6.209c0-0.96-0.852-1.441-2.555-1.441c-0.313,0-0.588,0.012-0.826,0.035
		c0,1.043,0.021,1.974,0.064,2.794C6.533,7.633,6.794,7.65,7.169,7.65c0.941,0,1.609-0.123,2.004-0.369
		C9.525,7.059,9.701,6.701,9.701,6.209z"/>
	<path class="st0" d="M17.019,7.574l-0.035,0.861h-4.611c0.047-0.965,0.07-2.301,0.07-4.007c0-1.469-0.023-2.676-0.07-3.621h1.09
		c-0.047,0.789-0.07,1.996-0.07,3.621c0,1.336-0.021,2.406-0.064,3.21C14.5,7.639,15.73,7.617,17.019,7.574z"/>
	<path class="st0" d="M24.367,0.807c-0.016,0.738-0.027,1.428-0.035,2.068S24.32,4.114,24.32,4.668c0,2.617-1.033,3.925-3.1,3.925
		c-0.539,0-1.001-0.077-1.386-0.231s-0.701-0.391-0.949-0.709s-0.43-0.72-0.545-1.204c-0.115-0.484-0.173-1.056-0.173-1.716
		c0-0.578-0.004-1.192-0.012-1.843s-0.02-1.345-0.035-2.083h1.113c-0.047,1.488-0.07,2.654-0.07,3.498c0,0.68,0.033,1.233,0.1,1.661
		c0.066,0.427,0.185,0.784,0.354,1.069s0.384,0.487,0.642,0.606s0.586,0.179,0.984,0.179c0.418,0,0.758-0.06,1.02-0.179
		s0.475-0.316,0.639-0.592s0.281-0.629,0.352-1.06c0.07-0.432,0.105-0.997,0.105-1.696c0-0.414-0.007-0.909-0.021-1.485
		s-0.034-1.243-0.062-2.001H24.367z"/>
	<path class="st0" d="M31.199,7.551l-0.035,0.885h-4.723c0.055-1.211,0.082-2.546,0.082-4.007c0-1.375-0.027-2.582-0.082-3.621h4.43
		L30.824,1.68c-1.074-0.047-2.213-0.07-3.416-0.07c0.023,0.605,0.035,1.424,0.035,2.455c1.039,0,1.965-0.023,2.777-0.07v0.873
		c-0.867-0.035-1.793-0.053-2.777-0.053c0,1.004,0.018,1.945,0.053,2.824C28.792,7.639,30.027,7.609,31.199,7.551z"/>
</g>
</svg>
