<?xml version="1.0" encoding="utf-8"?>
<!-- Generator: Adobe Illustrator 21.0.0, SVG Export Plug-In . SVG Version: 6.00 Build 0)  -->
<svg version="1.1" id="Layer_1" xmlns="http://www.w3.org/2000/svg" xmlns:xlink="http://www.w3.org/1999/xlink" x="0px" y="0px"
	 viewBox="0 0 141 10" style="enable-background:new 0 0 141 10;" xml:space="preserve">
<style type="text/css">
	.st0{fill:#00558B;stroke:#0071BC;stroke-miterlimit:10;}
</style>
<g>
	<path class="st0" d="M5.151,0.835C5.787,0.739,6.542,0.667,7.37,0.667c1.499,0,2.566,0.348,3.274,1.007
		c0.72,0.66,1.14,1.595,1.14,2.902c0,1.319-0.408,2.399-1.164,3.142C9.865,8.475,8.617,8.882,7.046,8.882
		c-0.744,0-1.368-0.035-1.895-0.096V0.835z M6.195,7.982C6.458,8.03,6.842,8.043,7.25,8.043c2.231,0,3.442-1.247,3.442-3.43
		c0.012-1.907-1.067-3.118-3.274-3.118c-0.54,0-0.947,0.048-1.223,0.108V7.982z"/>
	<path class="st0" d="M17.329,5.021h-3.142v2.914h3.502v0.876h-4.545V0.727h4.366v0.875h-3.322v2.555h3.142V5.021z"/>
	<path class="st0" d="M23.232,5.021H20.09v2.914h3.502v0.876h-4.545V0.727h4.365v0.875H20.09v2.555h3.142V5.021z"/>
	<path class="st0" d="M24.951,0.823c0.503-0.084,1.163-0.156,2.003-0.156c1.031,0,1.787,0.24,2.267,0.672
		c0.444,0.384,0.708,0.971,0.708,1.691c0,0.731-0.216,1.307-0.624,1.727c-0.552,0.587-1.451,0.888-2.471,0.888
		c-0.312,0-0.6-0.012-0.839-0.072v3.238h-1.043V0.823z M25.994,4.721c0.228,0.06,0.516,0.084,0.863,0.084
		c1.259,0,2.027-0.612,2.027-1.727c0-1.067-0.755-1.583-1.907-1.583c-0.456,0-0.804,0.036-0.983,0.084V4.721z"/>
	<path class="st0" d="M37.335,0.835c0.456-0.096,1.175-0.168,1.907-0.168c1.043,0,1.715,0.18,2.219,0.588
		c0.42,0.312,0.672,0.792,0.672,1.427c0,0.779-0.516,1.463-1.367,1.775v0.024c0.768,0.192,1.667,0.828,1.667,2.027
		c0,0.695-0.276,1.223-0.684,1.619c-0.564,0.516-1.475,0.755-2.794,0.755c-0.72,0-1.271-0.048-1.619-0.096V0.835z M38.378,4.145
		h0.947c1.104,0,1.751-0.576,1.751-1.355c0-0.948-0.719-1.319-1.775-1.319c-0.479,0-0.755,0.036-0.923,0.072V4.145z M38.378,8.019
		c0.204,0.036,0.503,0.048,0.875,0.048c1.079,0,2.075-0.396,2.075-1.571c0-1.103-0.947-1.559-2.087-1.559h-0.863V8.019z"/>
	<path class="st0" d="M43.839,0.727h1.043v7.208h3.454v0.876h-4.498V0.727z"/>
	<path class="st0" d="M50.114,0.727v4.785c0,1.811,0.804,2.579,1.883,2.579c1.199,0,1.967-0.792,1.967-2.579V0.727h1.056V5.44
		c0,2.482-1.308,3.502-3.059,3.502c-1.655,0-2.902-0.947-2.902-3.454V0.727H50.114z"/>
	<path class="st0" d="M61.021,5.021h-3.143v2.914h3.502v0.876h-4.546V0.727H61.2v0.875h-3.322v2.555h3.143V5.021z"/>
</g>
</svg>
